<svg width="1200" height="760" viewBox="0 0 1200 760" fill="none" xmlns="http://www.w3.org/2000/svg">
  <rect width="1200" height="760" rx="40" fill="#0B2419"/>
  <rect x="58" y="72" width="1084" height="616" rx="30" fill="#174530" stroke="#D9AE55" stroke-width="10"/>
  <rect x="108" y="122" width="984" height="516" rx="22" fill="#1E6547"/>
  <circle cx="108" cy="122" r="22" fill="#0B2419"/>
  <circle cx="600" cy="122" r="22" fill="#0B2419"/>
  <circle cx="1092" cy="122" r="22" fill="#0B2419"/>
  <circle cx="108" cy="638" r="22" fill="#0B2419"/>
  <circle cx="600" cy="638" r="22" fill="#0B2419"/>
  <circle cx="1092" cy="638" r="22" fill="#0B2419"/>
  <circle cx="348" cy="392" r="24" fill="white"/>
  <circle cx="736" cy="304" r="24" fill="#F3C55C"/>
  <circle cx="862" cy="430" r="24" fill="#C84B43"/>
  <path d="M372 392C458 366 566 318 712 308" stroke="#FFF6D6" stroke-width="8" stroke-linecap="round"/>
  <path d="M760 304C838 280 920 232 1038 156" stroke="#FFD56B" stroke-width="8" stroke-linecap="round" stroke-dasharray="16 18"/>
  <rect x="792" y="188" width="232" height="150" rx="24" fill="#0D2D20" fill-opacity="0.8" stroke="#D9AE55" stroke-opacity="0.6"/>
  <text x="826" y="238" fill="#FCE8BA" font-family="Arial, sans-serif" font-size="28" font-weight="700">Demo Visual</text>
  <text x="826" y="282" fill="#F7F0DF" font-family="Arial, sans-serif" font-size="22">Replace with your GIF</text>
  <text x="826" y="316" fill="#F7F0DF" font-family="Arial, sans-serif" font-size="22">assets/hero-demo.gif</text>
</svg>
