<svg width="1440" height="920" viewBox="0 0 1440 920" fill="none" xmlns="http://www.w3.org/2000/svg">
  <rect width="1440" height="920" rx="34" fill="#F3EFE5"/>
  <rect x="28" y="28" width="1384" height="864" rx="34" fill="#FBF8F1" stroke="#E7DCC7" stroke-width="2"/>
  <circle cx="1230" cy="120" r="210" fill="#EFE2BD"/>
  <circle cx="80" cy="820" r="150" fill="#EDE6D7"/>
  <rect x="154" y="104" width="1132" height="680" rx="34" fill="white" stroke="#D8C46B" stroke-width="4"/>
  <path d="M1184 138L1230 184" stroke="#B4B4B4" stroke-width="6" stroke-linecap="round"/>
  <path d="M1230 138L1184 184" stroke="#B4B4B4" stroke-width="6" stroke-linecap="round"/>

  <text x="208" y="220" fill="#111111" font-family="PingFang SC, Arial, sans-serif" font-size="48" font-weight="600">图像识别方案选择</text>

  <g fill="#202020" font-family="PingFang SC, Arial, sans-serif" font-size="28">
    <circle cx="250" cy="308" r="18" stroke="#707070" stroke-width="5" fill="white"/>
    <text x="286" y="318">零一</text>
    <circle cx="438" cy="308" r="18" stroke="#707070" stroke-width="5" fill="white"/>
    <text x="474" y="318">零二</text>
    <circle cx="626" cy="308" r="18" stroke="#707070" stroke-width="5" fill="white"/>
    <text x="662" y="318">零三</text>
    <circle cx="814" cy="308" r="18" stroke="#707070" stroke-width="5" fill="white"/>
    <text x="850" y="318">零四</text>
    <circle cx="1002" cy="308" r="18" stroke="#707070" stroke-width="5" fill="white"/>
    <text x="1038" y="318">零五</text>

    <circle cx="250" cy="392" r="18" stroke="#707070" stroke-width="5" fill="white"/>
    <text x="286" y="402">零六</text>
    <circle cx="438" cy="392" r="18" stroke="#707070" stroke-width="5" fill="white"/>
    <text x="474" y="402">零七</text>
    <circle cx="626" cy="392" r="18" stroke="#707070" stroke-width="5" fill="white"/>
    <text x="662" y="402">零八</text>
  </g>

  <text x="386" y="508" fill="#8A8A8A" font-family="PingFang SC, Arial, sans-serif" font-size="28" font-weight="600">P1 越大：圆边缘严格、噪点少、可能漏检</text>
  <circle cx="258" cy="596" r="48" fill="white" stroke="#8E8E8E" stroke-width="5"/>
  <circle cx="258" cy="596" r="28" fill="#FF8A1C"/>
  <text x="244" y="608" fill="white" font-family="Arial, sans-serif" font-size="44" font-weight="700">−</text>
  <line x1="430" y1="596" x2="968" y2="596" stroke="#D4D4D4" stroke-width="6"/>
  <circle cx="430" cy="596" r="18" fill="#0B9786"/>
  <circle cx="1102" cy="596" r="48" fill="white" stroke="#8E8E8E" stroke-width="5"/>
  <circle cx="1102" cy="596" r="28" fill="#FF8A1C"/>
  <text x="1088" y="608" fill="white" font-family="Arial, sans-serif" font-size="34" font-weight="700">+</text>
  <text x="476" y="676" fill="#2F2F2F" font-family="PingFang SC, Arial, sans-serif" font-size="26">当前值：50</text>
  <text x="672" y="676" fill="#2F2F2F" font-family="PingFang SC, Arial, sans-serif" font-size="26">默认值：120</text>

  <text x="386" y="760" fill="#8A8A8A" font-family="PingFang SC, Arial, sans-serif" font-size="28" font-weight="600">P2 越大：圆判定严格、数量少、更加准确</text>

  <rect x="1062" y="816" width="300" height="58" rx="20" fill="#213B30" fill-opacity="0.72"/>
  <text x="1094" y="854" fill="#FFF8EE" font-family="PingFang SC, Arial, sans-serif" font-size="28">罗富贵 363261670</text>
</svg>
