<svg width="1440" height="920" viewBox="0 0 1440 920" fill="none" xmlns="http://www.w3.org/2000/svg">
  <rect width="1440" height="920" rx="34" fill="#F3EFE5"/>
  <rect x="28" y="28" width="1384" height="864" rx="34" fill="#FBF8F1" stroke="#E7DCC7" stroke-width="2"/>
  <circle cx="1230" cy="120" r="210" fill="#EFE2BD"/>
  <circle cx="80" cy="820" r="150" fill="#EDE6D7"/>
  <rect x="254" y="74" width="932" height="700" rx="28" fill="white" stroke="#E4D9C8" stroke-width="2"/>
  <path d="M1105 117L1148 160" stroke="#B9B9B9" stroke-width="6" stroke-linecap="round"/>
  <path d="M1148 117L1105 160" stroke="#B9B9B9" stroke-width="6" stroke-linecap="round"/>

  <text x="320" y="170" fill="#111111" font-family="PingFang SC, Arial, sans-serif" font-size="30" font-weight="600">当前桌布：</text>
  <circle cx="500" cy="157" r="18" stroke="#0B9786" stroke-width="5"/>
  <circle cx="500" cy="157" r="9" fill="#0B9786"/>
  <text x="534" y="170" fill="#202020" font-family="PingFang SC, Arial, sans-serif" font-size="28">桌布1</text>
  <circle cx="682" cy="157" r="18" stroke="#707070" stroke-width="5"/>
  <text x="716" y="170" fill="#202020" font-family="PingFang SC, Arial, sans-serif" font-size="28">桌布2</text>
  <circle cx="862" cy="157" r="18" stroke="#707070" stroke-width="5"/>
  <text x="896" y="170" fill="#202020" font-family="PingFang SC, Arial, sans-serif" font-size="28">桌布3</text>

  <text x="320" y="250" fill="#111111" font-family="PingFang SC, Arial, sans-serif" font-size="30" font-weight="600">当前反射方案：</text>
  <circle cx="676" cy="237" r="18" stroke="#707070" stroke-width="5"/>
  <text x="710" y="250" fill="#202020" font-family="PingFang SC, Arial, sans-serif" font-size="28">反射补偿</text>
  <circle cx="896" cy="237" r="18" stroke="#0B9786" stroke-width="5"/>
  <circle cx="896" cy="237" r="9" fill="#0B9786"/>
  <text x="930" y="250" fill="#202020" font-family="PingFang SC, Arial, sans-serif" font-size="28">镜像反射</text>

  <text x="402" y="338" fill="#292929" font-family="PingFang SC, Arial, sans-serif" font-size="28">补偿比例</text>
  <rect x="572" y="302" width="76" height="64" rx="8" fill="#E9E9E9"/>
  <text x="602" y="345" fill="#202020" font-family="Arial, sans-serif" font-size="40">-</text>
  <text x="748" y="344" fill="#8A8A8A" font-family="Arial, sans-serif" font-size="36">0.2</text>
  <rect x="894" y="302" width="76" height="64" rx="8" fill="#E9E9E9"/>
  <text x="920" y="345" fill="#202020" font-family="Arial, sans-serif" font-size="40">+</text>

  <rect x="396" y="402" width="116" height="80" fill="#000000"/>
  <rect x="548" y="402" width="116" height="80" fill="#A8A8A8"/>
  <rect x="700" y="402" width="116" height="80" fill="#F10707"/>
  <rect x="852" y="402" width="116" height="80" fill="#01FF67"/>
  <rect x="396" y="502" width="116" height="80" fill="#1A49F4"/>
  <rect x="548" y="502" width="116" height="80" fill="#FFC705"/>
  <rect x="700" y="502" width="116" height="80" fill="#1BC8DF"/>
  <rect x="852" y="502" width="116" height="80" fill="#F107E8"/>
  <rect x="1004" y="502" width="116" height="80" fill="#FF8508"/>

  <text x="312" y="652" fill="#292929" font-family="PingFang SC, Arial, sans-serif" font-size="28">手动翻袋库数</text>
  <rect x="566" y="614" width="76" height="64" rx="8" fill="#E9E9E9"/>
  <text x="596" y="657" fill="#202020" font-family="Arial, sans-serif" font-size="40">-</text>
  <text x="740" y="656" fill="#6B6B6B" font-family="Arial, sans-serif" font-size="36">2</text>
  <rect x="894" y="614" width="76" height="64" rx="8" fill="#E9E9E9"/>
  <text x="920" y="657" fill="#202020" font-family="Arial, sans-serif" font-size="40">+</text>

  <text x="364" y="736" fill="#292929" font-family="PingFang SC, Arial, sans-serif" font-size="28">辅助线粗细</text>
  <rect x="566" y="698" width="76" height="64" rx="8" fill="#E9E9E9"/>
  <text x="596" y="741" fill="#202020" font-family="Arial, sans-serif" font-size="40">-</text>
  <text x="740" y="740" fill="#6B6B6B" font-family="Arial, sans-serif" font-size="36">3</text>
  <rect x="894" y="698" width="76" height="64" rx="8" fill="#E9E9E9"/>
  <text x="920" y="741" fill="#202020" font-family="Arial, sans-serif" font-size="40">+</text>

  <text x="308" y="812" fill="#292929" font-family="PingFang SC, Arial, sans-serif" font-size="28">显示蚂蚁线</text>
  <rect x="536" y="784" width="94" height="42" rx="21" fill="#BFDAD4"/>
  <circle cx="593" cy="805" r="24" fill="#0B9786"/>
  <text x="700" y="812" fill="#292929" font-family="PingFang SC, Arial, sans-serif" font-size="28">调试</text>
  <rect x="782" y="784" width="94" height="42" rx="21" fill="#D0D0D0"/>
  <circle cx="816" cy="805" r="24" fill="#F5F5F5" stroke="#CFCFCF" stroke-width="2"/>

  <rect x="254" y="808" width="932" height="84" rx="0" fill="#FF4A4A"/>
  <text x="662" y="862" fill="white" font-family="PingFang SC, Arial, sans-serif" font-size="34" font-weight="500">退出应用</text>

  <rect x="1062" y="816" width="300" height="58" rx="20" fill="#213B30" fill-opacity="0.72"/>
  <text x="1094" y="854" fill="#FFF8EE" font-family="PingFang SC, Arial, sans-serif" font-size="28">罗富贵 363261670</text>
</svg>
